<svg xmlns="http://www.w3.org/2000/svg" viewBox="0 0 102.3 112.25">
  <title>Asset 54</title>
  <g id="Layer_2" data-name="Layer 2">
    <g id="Layer_1-2" data-name="Layer 1">
      <path d="M92.8,21.11,60.65,2.54a19,19,0,0,0-19,0L9.5,21.11A19,19,0,0,0,0,37.56V74.69A19,19,0,0,0,9.5,91.14L41.65,109.7a19,19,0,0,0,19,0L92.8,91.14a19,19,0,0,0,9.5-16.45V37.56A19,19,0,0,0,92.8,21.11ZM74.73,61.6a5.39,5.39,0,0,1-5.79,5l-2.48-.19A2.32,2.32,0,0,0,64,68.51l-.61,8L56.26,76a2.32,2.32,0,0,1-2.13-2.48l.16-2.09A5.4,5.4,0,0,0,53,67.48a5.56,5.56,0,0,0-1.53-1.24,5.4,5.4,0,0,0-7.94,4.34l-.16,2.11a2.31,2.31,0,0,1-2.48,2.12L32,74.13l.61-8A2.29,2.29,0,0,1,35.06,64l1.91.14a5.4,5.4,0,0,0,5.79-4.94,5.48,5.48,0,0,0-5.06-5.83l-1.82-.14a2.31,2.31,0,0,1-2.12-2.48l.61-8,8,.61a2.3,2.3,0,0,0,2.47-2.13l.09-1.14A5.49,5.49,0,0,1,50.78,35a5.38,5.38,0,0,1,4.93,5.79l-.09,1.24a2.3,2.3,0,0,0,2.12,2.47l8,.61-.61,8a2.31,2.31,0,0,0,2.12,2.48l2.49.19A5.39,5.39,0,0,1,74.73,61.6Z" style="fill: #290a63"/>
    </g>
  </g>
</svg>
