<svg xmlns="http://www.w3.org/2000/svg" viewBox="0 0 102.3 112.25">
  <title>Asset 51</title>
  <g id="Layer_2" data-name="Layer 2">
    <g id="Layer_1-2" data-name="Layer 1">
      <path d="M92.8,21.11,60.65,2.54a19,19,0,0,0-19,0L9.5,21.11A19,19,0,0,0,0,37.56V74.69A19,19,0,0,0,9.5,91.14L41.65,109.7a19,19,0,0,0,19,0L92.8,91.14a19,19,0,0,0,9.5-16.45V37.56A19,19,0,0,0,92.8,21.11ZM75.06,57.35l-3.75-.12c-.76,0-1.38-2.45-1.38-5.48a18.92,18.92,0,0,1,.09-1.9l-7.9,7.72h.21c1.4,0,2.53,3.46,2.53,7.73S63.73,73,62.33,73l-6.88-.18c-1.24,0-2.28-2.74-2.49-6.35l-3.39,3.31L32.46,60.93a1,1,0,0,1-.7.43l-5.33-.15c-.87,0-1.61-1.83-1.86-4.37L20.82,54.9l3.76-2.09c.27-2.46,1-4.23,1.85-4.23l5.33.14a.7.7,0,0,1,.14,0L40.45,44c0-.12,0-.25,0-.37,0-2,.64-3.55,1.44-3.55l3.9.08a.94.94,0,0,1,.72.48l2.55-1.42,26.42,5.31L73.6,46.35l1.46,0c.77,0,1.39,2.45,1.39,5.47S75.83,57.35,75.06,57.35Z" style="fill: #290a63"/>
    </g>
  </g>
</svg>
