<svg xmlns="http://www.w3.org/2000/svg" viewBox="0 0 102.3 112.25">
  <title>Asset 55</title>
  <g id="Layer_2" data-name="Layer 2">
    <g id="Layer_1-2" data-name="Layer 1">
      <path d="M92.8,21.11,60.65,2.54a19,19,0,0,0-19,0L9.5,21.11A19,19,0,0,0,0,37.56V74.69A19,19,0,0,0,9.5,91.14L41.65,109.7a19,19,0,0,0,19,0L92.8,91.14a19,19,0,0,0,9.5-16.45V37.56A19,19,0,0,0,92.8,21.11ZM40,52.12,29.19,55.79l-1.34.5,1.34.47L40,60.38v5.35L22.53,58.48V54L40,46.79Zm8.38,18.93H43.28L54,39.81h5.12ZM79.52,58.5,61.74,65.75V60.42l11.32-3.8,1.2-.39-1.18-.39L61.74,52.1V46.79L79.52,54Z" style="fill: #290a63"/>
    </g>
  </g>
</svg>
