<svg xmlns="http://www.w3.org/2000/svg" viewBox="0 0 102.3 112.25">
  <title>Asset 53</title>
  <g id="Layer_2" data-name="Layer 2">
    <g id="Layer_1-2" data-name="Layer 1">
      <g>
        <path d="M43.82,45.37a4.81,4.81,0,0,0-6,3.14,4.82,4.82,0,0,0,3.83,5.61c2.72.67,5.42-.74,6-3.15A4.82,4.82,0,0,0,43.82,45.37Zm1.83,5.1a3,3,0,1,1-2.27-3.32A2.86,2.86,0,0,1,45.65,50.47Z" style="fill: #290a63"/>
        <path d="M58.74,53.06a1.59,1.59,0,0,0-2-.5,1.2,1.2,0,0,0-.45,1.78,1.58,1.58,0,0,0,2,.5A1.2,1.2,0,0,0,58.74,53.06Z" style="fill: #290a63"/>
        <path d="M59.29,56.31a1.2,1.2,0,0,0-.44,1.79,1.6,1.6,0,0,0,2,.5,1.2,1.2,0,0,0,.44-1.79A1.59,1.59,0,0,0,59.29,56.31Z" style="fill: #290a63"/>
        <path d="M62.77,51a1.6,1.6,0,0,0-2-.51,1.2,1.2,0,0,0-.45,1.79,1.6,1.6,0,0,0,2,.5A1.2,1.2,0,0,0,62.77,51Z" style="fill: #290a63"/>
        <path d="M63.32,54.2A1.21,1.21,0,0,0,62.87,56a1.62,1.62,0,0,0,2,.5,1.21,1.21,0,0,0,.44-1.79A1.6,1.6,0,0,0,63.32,54.2Z" style="fill: #290a63"/>
        <path d="M92.8,21.11,60.65,2.54a19,19,0,0,0-19,0L9.5,21.11A19,19,0,0,0,0,37.56V74.69A19,19,0,0,0,9.5,91.14L41.65,109.7a19,19,0,0,0,19,0L92.8,91.14a19,19,0,0,0,9.5-16.45V37.56A19,19,0,0,0,92.8,21.11ZM69.17,71.38c-1.46,1.78-4.41,1.78-6.71,0a24.45,24.45,0,0,1-5.41-6.35A12.33,12.33,0,0,0,41,61a24.63,24.63,0,0,1-7.76,3.07c-2.86.46-5.45-.93-5.92-3.18a17.17,17.17,0,0,1,4.21-14.58A30.88,30.88,0,0,1,37.77,41c4.61-3,11.12-1.19,14.57,2.1a3.28,3.28,0,0,0,3.1.77c4.58-1.29,11.17.2,13.84,5a30.63,30.63,0,0,1,3,7.7A17.16,17.16,0,0,1,69.17,71.38Z" style="fill: #290a63"/>
      </g>
    </g>
  </g>
</svg>
