<svg width="261" height="178" viewBox="0 0 261 178" fill="none" xmlns="http://www.w3.org/2000/svg">
<g clip-path="url(#clip0_6:34)" filter="url(#filter0_di_6:34)">
<path d="M180.85 34.4785C180.54 32.0078 179.737 29.6247 178.491 27.4708C177.244 25.3169 175.579 23.436 173.593 21.9398C172.99 21.4834 172.36 21.0632 171.707 20.6811L166.217 17.5133L158.491 13.0326L140.734 2.75826L140.284 2.49327C137.642 0.962729 134.665 0.106528 131.616 -1.9283e-05C130.035 -0.0567588 128.454 0.0930542 126.912 0.445642C125.086 0.858605 123.332 1.54482 121.71 2.48123L118.244 4.49875L110.218 9.14808L104.031 12.7254L99.664 15.2548L94.1495 18.4528L90.299 20.6811C88.7437 21.5858 87.3274 22.7117 86.094 24.0235C84.3984 25.8115 83.0751 27.9203 82.2014 30.2266C81.934 30.9264 81.7113 31.6425 81.5346 32.3706C81.1807 33.8235 81.0012 35.3136 81 36.8092V73.1908C81.0005 74.5335 81.1455 75.8722 81.4325 77.1837C81.5897 77.9038 81.7903 78.6138 82.0332 79.3096C83.501 83.5288 86.4296 87.0802 90.287 89.3189L93.6149 91.2401L99.8142 94.8234L104.181 97.3528L109.69 100.545L118.064 105.393L121.71 107.507C124.534 109.141 127.737 110.001 130.997 110.001C134.257 110.001 137.46 109.141 140.284 107.507L140.783 107.212L146.423 103.953L148.111 102.972L158.57 96.9493L166.535 92.3361L171.713 89.3249C172.464 88.8868 173.185 88.3979 173.87 87.8615C176.437 85.8493 178.43 83.1947 179.648 80.1648C180.317 78.513 180.742 76.7722 180.91 74.9975C180.971 74.3972 181.001 73.7942 181 73.1908V36.8092C180.999 36.0299 180.948 35.2515 180.85 34.4785ZM151.589 44.5239C149.407 46.6616 147.36 48.9346 145.462 51.3293C142.019 55.6812 139.069 60.4038 136.668 65.4098C136.325 66.1204 136.001 66.8431 135.683 67.5658C134.506 70.2506 133.497 73.0062 132.661 75.8166C132.02 77.9365 131.472 80.0945 131.015 82.2907C129.772 76.1875 127.753 70.2694 125.008 64.6811C123.592 61.7993 121.986 59.0148 120.202 56.346C118.147 53.2514 115.858 50.3199 113.354 47.5773C112.345 46.4571 111.294 45.3671 110.206 44.3192C109.347 43.47 108.458 42.651 107.551 41.85C107.059 41.4103 106.56 40.9827 106.056 40.5612C107.341 41.0229 108.639 41.4505 109.948 41.8439C113.605 42.9414 117.343 43.7469 121.127 44.2529C122.269 44.4095 123.428 44.536 124.593 44.6384C126.708 44.819 128.846 44.9154 131.003 44.9154C131.804 44.9154 132.591 44.9033 133.364 44.8793C134.966 44.823 136.544 44.7207 138.097 44.5721C144.193 43.9906 150.191 42.6431 155.95 40.5612C154.441 41.8259 152.987 43.1468 151.589 44.5239Z" fill="white"/>
</g>
<g filter="url(#filter1_di_6:34)">
<path d="M15.744 162.64C20.672 162.64 23.552 160.016 25.792 157.136V162H35.52V127.696H25.792V146.832C25.792 151.44 23.424 153.808 19.712 153.808C16 153.808 13.824 151.44 13.824 146.832V127.696H4.096V149.904C4.096 157.776 8.384 162.64 15.744 162.64ZM44.227 162H53.955V149.328C53.955 141.136 57.923 137.232 64.387 137.232H64.899V127.056C59.139 126.8 55.939 129.872 53.955 134.608V127.696H44.227V162ZM86.2955 162.768C92.5035 162.768 97.1115 160.336 100.312 156.368L94.7435 151.44C92.0555 153.936 89.6875 154.96 86.4235 154.96C82.0715 154.96 78.9995 152.656 78.0395 148.24H101.912C101.976 147.344 102.04 146.448 102.04 145.68C102.04 135.952 96.7915 127.056 85.3355 127.056C75.3515 127.056 68.3755 135.12 68.3755 144.912V145.04C68.3755 155.536 75.9915 162.768 86.2955 162.768ZM77.9115 142.16C78.6795 137.744 81.3035 134.864 85.3355 134.864C89.4315 134.864 91.9915 137.808 92.5675 142.16H77.9115ZM125.482 162.768C132.33 162.768 136.17 160.144 139.498 156.496L133.802 150.736C131.434 152.976 129.194 154.384 125.93 154.384C120.618 154.384 117.226 150.16 117.226 144.912V144.784C117.226 139.728 120.682 135.44 125.546 135.44C129.002 135.44 131.178 136.912 133.354 139.216L139.306 132.816C136.106 129.232 132.074 127.056 125.61 127.056C115.114 127.056 107.626 135.12 107.626 144.912V145.04C107.626 154.832 115.178 162.768 125.482 162.768ZM145.852 162H155.58V151.568L158.972 147.984L167.932 162H179.068L165.564 141.2L178.62 127.696H166.972L155.58 140.176V115.28H145.852V162ZM198.934 162.768C209.622 162.768 217.558 154.768 217.558 144.912V144.784C217.558 134.928 209.686 127.056 199.062 127.056C188.374 127.056 180.438 135.056 180.438 144.912V145.04C180.438 154.896 188.31 162.768 198.934 162.768ZM199.062 154.384C193.686 154.384 190.038 149.968 190.038 144.912V144.784C190.038 139.728 193.366 135.44 198.934 135.44C204.31 135.44 207.958 139.856 207.958 144.912V145.04C207.958 150.096 204.63 154.384 199.062 154.384ZM224.602 162H234.33V142.864C234.33 138.256 236.698 135.888 240.41 135.888C244.122 135.888 246.298 138.256 246.298 142.864V162H256.026V139.792C256.026 131.92 251.738 127.056 244.378 127.056C239.45 127.056 236.57 129.68 234.33 132.56V127.696H224.602V162Z" fill="white"/>
</g>
<defs>
<filter id="filter0_di_6:34" x="81" y="0" width="104" height="114" filterUnits="userSpaceOnUse" color-interpolation-filters="sRGB">
<feFlood flood-opacity="0" result="BackgroundImageFix"/>
<feColorMatrix in="SourceAlpha" type="matrix" values="0 0 0 0 0 0 0 0 0 0 0 0 0 0 0 0 0 0 127 0" result="hardAlpha"/>
<feOffset dx="2" dy="2"/>
<feGaussianBlur stdDeviation="1"/>
<feColorMatrix type="matrix" values="0 0 0 0 0.14902 0 0 0 0 0.478431 0 0 0 0 0.776471 0 0 0 1 0"/>
<feBlend mode="normal" in2="BackgroundImageFix" result="effect1_dropShadow_6:34"/>
<feBlend mode="normal" in="SourceGraphic" in2="effect1_dropShadow_6:34" result="shape"/>
<feColorMatrix in="SourceAlpha" type="matrix" values="0 0 0 0 0 0 0 0 0 0 0 0 0 0 0 0 0 0 127 0" result="hardAlpha"/>
<feOffset dx="2" dy="2"/>
<feGaussianBlur stdDeviation="1"/>
<feComposite in2="hardAlpha" operator="arithmetic" k2="-1" k3="1"/>
<feColorMatrix type="matrix" values="0 0 0 0 0.262745 0 0 0 0 0.788235 0 0 0 0 0.929412 0 0 0 1 0"/>
<feBlend mode="normal" in2="shape" result="effect2_innerShadow_6:34"/>
</filter>
<filter id="filter1_di_6:34" x="3.59595" y="114.78" width="255.93" height="51.488" filterUnits="userSpaceOnUse" color-interpolation-filters="sRGB">
<feFlood flood-opacity="0" result="BackgroundImageFix"/>
<feColorMatrix in="SourceAlpha" type="matrix" values="0 0 0 0 0 0 0 0 0 0 0 0 0 0 0 0 0 0 127 0" result="hardAlpha"/>
<feOffset dx="1.5" dy="1.5"/>
<feGaussianBlur stdDeviation="1"/>
<feComposite in2="hardAlpha" operator="out"/>
<feColorMatrix type="matrix" values="0 0 0 0 0.14902 0 0 0 0 0.478431 0 0 0 0 0.776471 0 0 0 1 0"/>
<feBlend mode="normal" in2="BackgroundImageFix" result="effect1_dropShadow_6:34"/>
<feBlend mode="normal" in="SourceGraphic" in2="effect1_dropShadow_6:34" result="shape"/>
<feColorMatrix in="SourceAlpha" type="matrix" values="0 0 0 0 0 0 0 0 0 0 0 0 0 0 0 0 0 0 127 0" result="hardAlpha"/>
<feOffset dx="1.5" dy="1.5"/>
<feGaussianBlur stdDeviation="1"/>
<feComposite in2="hardAlpha" operator="arithmetic" k2="-1" k3="1"/>
<feColorMatrix type="matrix" values="0 0 0 0 0.262745 0 0 0 0 0.788235 0 0 0 0 0.929412 0 0 0 1 0"/>
<feBlend mode="normal" in2="shape" result="effect2_innerShadow_6:34"/>
</filter>
<clipPath id="clip0_6:34">
<rect width="100" height="110" fill="white" transform="translate(81)"/>
</clipPath>
</defs>
</svg>
